<svg viewBox="0 0 32 32" fill="" xmlns="http://www.w3.org/2000/svg">
<path id="device" d="M27.9999 4H3.99992C2.53325 4 1.33325 5.2 1.33325 6.66667V22.6667C1.33325 24.1333 2.53325 25.3333 3.99992 25.3333H10.6666V28H21.3333V25.3333H27.9999C29.4666 25.3333 30.6533 24.1333 30.6533 22.6667L30.6666 6.66667C30.6666 5.2 29.4666 4 27.9999 4ZM27.9999 22.6667H3.99992V6.66667H27.9999V22.6667ZM25.3333 10.6667H10.6666V13.3333H25.3333V10.6667ZM25.3333 16H10.6666V18.6667H25.3333V16ZM9.33325 10.6667H6.66659V13.3333H9.33325V10.6667ZM9.33325 16H6.66659V18.6667H9.33325V16Z"/>
</svg>
