<svg viewBox="0 0 14 14" fill="" xmlns="http://www.w3.org/2000/svg">
<path id="favorite" d="M9.62508 1.75C8.61008 1.75 7.63591 2.2225 7.00008 2.96917C6.36425 2.2225 5.39008 1.75 4.37508 1.75C2.57841 1.75 1.16675 3.16167 1.16675 4.95833C1.16675 7.16333 3.15008 8.96 6.15425 11.69L7.00008 12.4542L7.84591 11.6842C10.8501 8.96 12.8334 7.16333 12.8334 4.95833C12.8334 3.16167 11.4217 1.75 9.62508 1.75ZM7.05841 10.8208L7.00008 10.8792L6.94175 10.8208C4.16508 8.30667 2.33341 6.64417 2.33341 4.95833C2.33341 3.79167 3.20841 2.91667 4.37508 2.91667C5.27341 2.91667 6.14841 3.49417 6.45758 4.29333H7.54841C7.85175 3.49417 8.72675 2.91667 9.62508 2.91667C10.7917 2.91667 11.6667 3.79167 11.6667 4.95833C11.6667 6.64417 9.83508 8.30667 7.05841 10.8208Z" fill="" fill-opacity="0.55"/>
</svg>
