<svg id="logo" viewBox="0 0 265 75" xmlns="http://www.w3.org/2000/svg">
<path d="M148.818 48C147.106 48 145.446 47.7787 143.837 47.336C142.248 46.8731 140.97 46.2795 140 45.5551L141.702 41.8727C142.63 42.5367 143.734 43.07 145.013 43.4724C146.291 43.8749 147.57 44.0761 148.849 44.0761C150.273 44.0761 151.325 43.8749 152.005 43.4724C152.686 43.0499 153.026 42.4965 153.026 41.8123C153.026 41.3093 152.82 40.8968 152.408 40.5748C152.016 40.2327 151.5 39.9611 150.86 39.7598C150.242 39.5586 149.396 39.3373 148.323 39.0958C146.673 38.7135 145.322 38.3311 144.27 37.9488C143.218 37.5665 142.31 36.9528 141.547 36.1076C140.804 35.2625 140.433 34.1356 140.433 32.727C140.433 31.4996 140.774 30.3928 141.454 29.4068C142.135 28.4007 143.156 27.6059 144.517 27.0223C145.9 26.4388 147.581 26.147 149.561 26.147C150.943 26.147 152.294 26.308 153.614 26.6299C154.934 26.9519 156.09 27.4147 157.08 28.0184L155.533 31.731C153.532 30.6242 151.531 30.0709 149.53 30.0709C148.127 30.0709 147.086 30.2922 146.405 30.7349C145.745 31.1776 145.415 31.7612 145.415 32.4856C145.415 33.21 145.796 33.7533 146.56 34.1155C147.343 34.4576 148.53 34.7997 150.118 35.1417C151.768 35.5241 153.119 35.9064 154.171 36.2887C155.223 36.671 156.121 37.2747 156.863 38.0997C157.626 38.9248 158.008 40.0416 158.008 41.4501C158.008 42.6575 157.657 43.7642 156.956 44.7703C156.275 45.7563 155.244 46.5411 153.862 47.1247C152.48 47.7082 150.799 48 148.818 48Z" fill="white"/>
<path d="M177.987 31.3989V47.6378H173.377V45.7664C172.18 47.175 170.447 47.8793 168.178 47.8793C166.611 47.8793 165.187 47.5372 163.908 46.853C162.65 46.1689 161.66 45.1929 160.938 43.9252C160.216 42.6575 159.855 41.1885 159.855 39.5184C159.855 37.8482 160.216 36.3793 160.938 35.1115C161.66 33.8438 162.65 32.8679 163.908 32.1837C165.187 31.4996 166.611 31.1575 168.178 31.1575C170.303 31.1575 171.964 31.8115 173.16 33.1194V31.3989H177.987ZM169.014 44.0157C170.231 44.0157 171.242 43.6133 172.046 42.8084C172.851 41.9834 173.253 40.8867 173.253 39.5184C173.253 38.15 172.851 37.0634 172.046 36.2585C171.242 35.4335 170.231 35.021 169.014 35.021C167.776 35.021 166.755 35.4335 165.951 36.2585C165.146 37.0634 164.744 38.15 164.744 39.5184C164.744 40.8867 165.146 41.9834 165.951 42.8084C166.755 43.6133 167.776 44.0157 169.014 44.0157Z" fill="white"/>
<path d="M199.35 31.3989V47.6378H194.739V45.7664C193.543 47.175 191.81 47.8793 189.541 47.8793C187.974 47.8793 186.55 47.5372 185.271 46.853C184.013 46.1689 183.023 45.1929 182.301 43.9252C181.579 42.6575 181.218 41.1885 181.218 39.5184C181.218 37.8482 181.579 36.3793 182.301 35.1115C183.023 33.8438 184.013 32.8679 185.271 32.1837C186.55 31.4996 187.974 31.1575 189.541 31.1575C191.666 31.1575 193.326 31.8115 194.523 33.1194V31.3989H199.35ZM190.377 44.0157C191.594 44.0157 192.605 43.6133 193.409 42.8084C194.213 41.9834 194.616 40.8867 194.616 39.5184C194.616 38.15 194.213 37.0634 193.409 36.2585C192.605 35.4335 191.594 35.021 190.377 35.021C189.139 35.021 188.118 35.4335 187.313 36.2585C186.509 37.0634 186.107 38.15 186.107 39.5184C186.107 40.8867 186.509 41.9834 187.313 42.8084C188.118 43.6133 189.139 44.0157 190.377 44.0157Z" fill="white"/>
<path d="M211.034 48C209.322 48 207.661 47.7787 206.052 47.336C204.464 46.8731 203.185 46.2795 202.215 45.5551L203.917 41.8727C204.846 42.5367 205.949 43.07 207.228 43.4724C208.507 43.8749 209.786 44.0761 211.065 44.0761C212.488 44.0761 213.54 43.8749 214.221 43.4724C214.902 43.0499 215.242 42.4965 215.242 41.8123C215.242 41.3093 215.036 40.8968 214.623 40.5748C214.231 40.2327 213.715 39.9611 213.076 39.7598C212.457 39.5586 211.611 39.3373 210.539 39.0958C208.889 38.7135 207.537 38.3311 206.485 37.9488C205.433 37.5665 204.526 36.9528 203.763 36.1076C203.02 35.2625 202.649 34.1356 202.649 32.727C202.649 31.4996 202.989 30.3928 203.67 29.4068C204.35 28.4007 205.372 27.6059 206.733 27.0223C208.115 26.4388 209.796 26.147 211.776 26.147C213.158 26.147 214.51 26.308 215.83 26.6299C217.15 26.9519 218.305 27.4147 219.295 28.0184L217.748 31.731C215.747 30.6242 213.746 30.0709 211.745 30.0709C210.343 30.0709 209.301 30.2922 208.62 30.7349C207.96 31.1776 207.63 31.7612 207.63 32.4856C207.63 33.21 208.012 33.7533 208.775 34.1155C209.559 34.4576 210.745 34.7997 212.333 35.1417C213.984 35.5241 215.335 35.9064 216.387 36.2887C217.439 36.671 218.336 37.2747 219.079 38.0997C219.842 38.9248 220.223 40.0416 220.223 41.4501C220.223 42.6575 219.873 43.7642 219.171 44.7703C218.491 45.7563 217.459 46.5411 216.077 47.1247C214.695 47.7082 213.014 48 211.034 48Z" fill="white"/>
<path d="M231.229 47.8793C229.476 47.8793 227.898 47.5271 226.495 46.8228C225.113 46.0984 224.03 45.1024 223.246 43.8346C222.462 42.5669 222.071 41.1282 222.071 39.5184C222.071 37.9086 222.462 36.4698 223.246 35.2021C224.03 33.9344 225.113 32.9484 226.495 32.2441C227.898 31.5197 229.476 31.1575 231.229 31.1575C232.983 31.1575 234.55 31.5197 235.932 32.2441C237.314 32.9484 238.397 33.9344 239.181 35.2021C239.965 36.4698 240.357 37.9086 240.357 39.5184C240.357 41.1282 239.965 42.5669 239.181 43.8346C238.397 45.1024 237.314 46.0984 235.932 46.8228C234.55 47.5271 232.983 47.8793 231.229 47.8793ZM231.229 44.0157C232.467 44.0157 233.478 43.6133 234.261 42.8084C235.066 41.9834 235.468 40.8867 235.468 39.5184C235.468 38.15 235.066 37.0634 234.261 36.2585C233.478 35.4335 232.467 35.021 231.229 35.021C229.992 35.021 228.97 35.4335 228.166 36.2585C227.362 37.0634 226.959 38.15 226.959 39.5184C226.959 40.8867 227.362 41.9834 228.166 42.8084C228.97 43.6133 229.992 44.0157 231.229 44.0157Z" fill="white"/>
<path d="M248.286 31.7612H252.556V35.3832H248.41V47.6378H243.583V31.0367C243.583 29.1855 244.14 27.7165 245.254 26.6299C246.389 25.5433 247.977 25 250.019 25C250.741 25 251.422 25.0805 252.061 25.2415C252.721 25.3823 253.268 25.5936 253.701 25.8753L252.433 29.2861C251.876 28.9038 251.226 28.7126 250.483 28.7126C249.019 28.7126 248.286 29.4974 248.286 31.0669V31.7612Z" fill="white"/>
<path d="M265 46.853C264.526 47.1951 263.938 47.4567 263.236 47.6378C262.556 47.7988 261.844 47.8793 261.101 47.8793C259.1 47.8793 257.564 47.3863 256.491 46.4003C255.418 45.4143 254.882 43.9654 254.882 42.0538V27.8071H259.709V31.7612H263.824V35.3832H259.709V41.9934C259.709 42.6776 259.884 43.2108 260.235 43.5932C260.586 43.9554 261.091 44.1365 261.751 44.1365C262.494 44.1365 263.154 43.9353 263.731 43.5328L265 46.853Z" fill="white"/>
<path d="M17.1515 37.5322C17.1515 37.5322 17.265 47.4448 25.4088 51.7436C31.709 55.0653 37.0016 54.8688 40.9738 52.6543C49.447 47.9319 49.7017 39.1238 49.7017 39.1238L54.9113 48.8122L57.7126 60.1448L57.3859 61.9026L49.7017 65.0361H39.4763C39.4763 65.0361 21.4836 65.9772 15.8339 41.3937C14.8845 37.2554 17.1515 37.5322 17.1515 37.5322Z" fill="#005D83"/>
<path d="M57.6323 60.4773C51.2657 65.9941 40.7081 65.637 33.4031 62.6198C24.8856 59.1043 22.2172 54.1522 19.4159 48.616C17.8546 45.5323 17.1598 41.6348 17.146 38.1774C17.146 35.1491 17.6664 31.534 19.6761 28.4891C22.4442 24.3369 28.534 21.2588 28.534 21.2588C28.534 21.2588 17.7218 23.6698 11.2084 32.7215C4.69507 41.7732 7.23619 52.782 7.23619 52.782C7.23619 52.782 11.2749 68.2197 23.3244 72.5186C35.374 76.8174 46.38 72.2584 46.38 72.2584C46.38 72.2584 54.7812 69.5871 60.0572 63.0073L57.6323 60.4745" fill="#19CAE4"/>
<path d="M102.199 30.8362C102.199 30.8362 99.3806 20.0572 92.2167 15.4317C85.0529 10.8062 81.1609 10.6263 76.1451 10.6457C68.3944 10.6733 63.2568 14.5736 63.2568 14.5736L66.4402 21.2613L69.175 30.8362L70.5425 36.1122C70.5425 36.1122 70.4511 32.3116 74.0275 27.6778C77.7728 22.8253 79.4447 22.2855 82.6917 21.5354C86.8909 20.561 91.3835 20.8683 95.2921 23.473C99.2007 26.0778 102.199 30.8362 102.199 30.8362Z" fill="#005D83"/>
<path d="M122.383 48.3281C118.151 61.1582 111.153 66.7249 101.155 71.857C97.4926 73.7421 77.8391 80.5211 60.0568 62.999C52.0155 55.074 50.2162 49.5045 49.5048 35.9713C48.6744 19.8166 36.8047 11.4154 23.0611 10.9587C9.31744 10.5019 0 23.3459 0 23.3459C0 23.3459 3.71756 9.7324 20.8466 2.56854C37.9756 -4.59531 53.3497 5.49997 53.3497 5.49997C57.5018 8.06323 61.1004 11.4929 62.9218 14.0977C64.3557 16.1489 66.3099 18.917 67.7438 22.4352C69.1971 26.0006 70.6088 30.8364 70.5424 36.1124C70.4815 41.0424 71.9264 48.7295 73.8004 51.2816C80.2197 60.0344 82.567 61.6676 88.2389 64.0315C88.6324 64.1971 89.0426 64.3196 89.4624 64.3969C105.49 67.3256 116.986 62.761 122.383 48.3281Z" fill="#19CAE4"/>
<path d="M70.6419 36.1481C70.581 41.0781 71.1567 44.4524 72.92 47.0904C81.2963 59.569 95.6185 54.819 103.067 49.7063C109.514 45.2773 113.495 39.2539 113.758 28.2009C114.018 17.325 109.883 12.4697 105.55 8.14041C104.358 6.96822 102.998 5.98023 101.515 5.20898C116.429 9.18398 122.356 27.614 122.356 27.614C122.356 27.614 126.264 36.9951 122.029 49.8253C117.7 59.951 108.905 64.4962 104.997 65.8111C101.088 67.1259 90.049 70.0075 80.1835 61.3351C73.3435 55.3255 69.1111 48.4219 70.6419 36.1453" fill="#005D83"/>
</svg>
