<svg width="14" height="14" viewBox="0 0 14 14" fill="none" xmlns="http://www.w3.org/2000/svg">
<g clip-path="url(#clip0_406_7928)">
<path id="eye" fill-rule="evenodd" clip-rule="evenodd" d="M-0.0830078 7.29199L0.0774666 6.87392C1.15601 4.06407 3.83287 2.04199 6.99999 2.04199C10.1671 2.04199 12.844 4.06407 13.9225 6.87392L14.083 7.29199L13.9225 7.71007C12.844 10.5199 10.1671 12.542 6.99999 12.542C3.83287 12.542 1.15601 10.5199 0.0774666 7.71007L-0.0830078 7.29199ZM12.8333 7.29199C11.9159 9.6821 9.6515 11.3753 6.99999 11.3753C4.34847 11.3753 2.08408 9.6821 1.16665 7.29199C2.08408 4.90188 4.34847 3.20866 6.99999 3.20866C9.6515 3.20866 11.9159 4.90188 12.8333 7.29199ZM4.34847 7.29199C4.34847 8.79466 5.53635 10.0142 6.99999 10.0142C8.46362 10.0142 9.6515 8.79466 9.6515 7.29199C9.6515 5.78933 8.46362 4.56977 6.99999 4.56977C5.53635 4.56977 4.34847 5.78933 4.34847 7.29199ZM5.40908 7.29199C5.40908 6.38821 6.11968 5.65866 6.99999 5.65866C7.88029 5.65866 8.59089 6.38821 8.59089 7.29199C8.59089 8.19577 7.88029 8.92533 6.99999 8.92533C6.11968 8.92533 5.40908 8.19577 5.40908 7.29199Z" />
</g>
<defs>
<clipPath id="clip0_406_7928">
<rect width="14" height="14" fill="white"/>
</clipPath>
</defs>
</svg>
