<svg width="28" height="28" viewBox="0 0 28 28" fill="noe" xmlns="http://www.w3.org/2000/svg">
<path id="tg" d="M14.0013 0.666992C6.6413 0.666992 0.667969 6.64033 0.667969 14.0003C0.667969 21.3603 6.6413 27.3337 14.0013 27.3337C21.3613 27.3337 27.3346 21.3603 27.3346 14.0003C27.3346 6.64033 21.3613 0.666992 14.0013 0.666992ZM20.188 9.73366C19.988 11.8403 19.1213 16.9603 18.6813 19.3203C18.4946 20.3203 18.1213 20.6537 17.7746 20.6937C17.0013 20.7603 16.4146 20.187 15.668 19.6937C14.4946 18.9203 13.828 18.4403 12.6946 17.6937C11.3746 16.827 12.228 16.347 12.988 15.5737C13.188 15.3737 16.6013 12.267 16.668 11.987C16.6772 11.9446 16.676 11.9006 16.6644 11.8587C16.6528 11.8169 16.6311 11.7786 16.6013 11.747C16.5213 11.6803 16.4146 11.707 16.3213 11.7203C16.2013 11.747 14.3346 12.987 10.6946 15.4403C10.1613 15.8003 9.6813 15.987 9.25463 15.9737C8.77464 15.9603 7.86797 15.707 7.18797 15.4803C6.34797 15.2137 5.69464 15.067 5.74797 14.6003C5.77464 14.3603 6.10797 14.1203 6.73464 13.867C10.628 12.1737 13.2146 11.0537 14.508 10.5203C18.2146 8.97366 18.9746 8.70699 19.4813 8.70699C19.588 8.70699 19.8413 8.73366 20.0013 8.86699C20.1346 8.97366 20.1746 9.12033 20.188 9.22699C20.1746 9.30699 20.2013 9.54699 20.188 9.73366Z" fill="" fill-opacity="0.8"/>
</svg>
