<svg viewBox="0 0 28 28" xmlns="http://www.w3.org/2000/svg">
<path id="vk" d="M18.0982 0.669922H9.91162C2.44092 0.669922 0.669922 2.44092 0.669922 9.91162V18.0982C0.669922 25.5689 2.44092 27.3399 9.91162 27.3399H18.0982C25.5689 27.3399 27.3399 25.5689 27.3399 18.0982V9.91162C27.3399 2.44092 25.5514 0.669922 18.0982 0.669922ZM22.2003 19.695H20.2643C19.5309 19.695 19.305 19.1133 17.9857 17.7765C16.8398 16.6656 16.3322 16.5181 16.0497 16.5181C15.6505 16.5181 15.5371 16.6306 15.5371 17.1781V18.9275C15.5371 19.3967 15.3896 19.6784 14.1479 19.6784C12.0943 19.6784 9.81578 18.4366 8.21813 16.123C5.80874 12.7327 5.14951 10.1933 5.14951 9.66827C5.14951 9.38574 5.26202 9.12155 5.80457 9.12155H7.74475C8.23563 9.12155 8.42232 9.3474 8.61317 9.87245C9.57242 12.6419 11.1701 15.0679 11.8293 15.0679C12.0727 15.0679 12.1852 14.9554 12.1852 14.3345V11.4743C12.111 10.155 11.4168 10.0416 11.4168 9.57326C11.4168 9.3474 11.6034 9.12155 11.9026 9.12155H14.9538C15.3663 9.12155 15.518 9.3474 15.518 9.83328V13.692C15.518 14.1087 15.7047 14.2562 15.8172 14.2562C16.0605 14.2562 16.2689 14.1087 16.7198 13.657C18.1132 12.0943 19.1117 9.68493 19.1117 9.68493C19.2417 9.40241 19.4675 9.13822 19.9584 9.13822H21.8986C22.4803 9.13822 22.6103 9.43741 22.4803 9.85412C22.2369 10.9826 19.8626 14.3337 19.8626 14.3337C19.6584 14.6721 19.58 14.8196 19.8626 15.1971C20.0709 15.4796 20.7485 16.0655 21.1993 16.5906C22.0286 17.5323 22.6662 18.3224 22.8362 18.8691C23.027 19.4117 22.7453 19.6942 22.1978 19.6942L22.2003 19.695Z"/>
</svg>
