<svg viewBox="0 0 28 28" xmlns="http://www.w3.org/2000/svg">
<path id="wa" d="M0.67332 27.3337L2.47599 20.7097C1.28817 18.6735 0.664115 16.3576 0.667987 14.0003C0.667987 6.63633 6.63732 0.666992 14.0013 0.666992C21.3653 0.666992 27.3347 6.63633 27.3347 14.0003C27.3347 21.3643 21.3653 27.3337 14.0013 27.3337C11.645 27.3375 9.33019 26.7139 7.29465 25.527L0.67332 27.3337ZM9.18932 7.74433C9.01714 7.75502 8.84889 7.80037 8.69465 7.87766C8.55001 7.95956 8.41798 8.06196 8.30265 8.18166C8.14265 8.33233 8.05199 8.46299 7.95465 8.58966C7.46187 9.23099 7.1968 10.0182 7.20132 10.827C7.20399 11.4803 7.37465 12.1163 7.64132 12.711C8.18665 13.9137 9.08399 15.187 10.2693 16.367C10.5547 16.651 10.8333 16.9363 11.1333 17.2017C12.6045 18.4969 14.3577 19.431 16.2533 19.9297L17.012 20.0457C17.2587 20.059 17.5053 20.0403 17.7533 20.0283C18.1416 20.0083 18.5208 19.9031 18.864 19.7203C19.0386 19.6304 19.209 19.5325 19.3747 19.427C19.3747 19.427 19.432 19.3897 19.5413 19.307C19.7213 19.1737 19.832 19.079 19.9813 18.923C20.092 18.8083 20.188 18.6737 20.2613 18.5203C20.3653 18.303 20.4693 17.8883 20.512 17.543C20.544 17.279 20.5347 17.135 20.5307 17.0457C20.5253 16.903 20.4067 16.755 20.2773 16.6923L19.5013 16.3443C19.5013 16.3443 18.3413 15.839 17.6333 15.5163C17.5587 15.4838 17.4787 15.4653 17.3973 15.4617C17.3061 15.4523 17.2139 15.4626 17.127 15.4918C17.0401 15.521 16.9604 15.5684 16.8933 15.631V15.6283C16.8867 15.6283 16.7973 15.7043 15.8333 16.8723C15.778 16.9467 15.7018 17.0029 15.6144 17.0337C15.527 17.0646 15.4324 17.0688 15.3427 17.0457C15.2558 17.0224 15.1707 16.993 15.088 16.9577C14.9227 16.8883 14.8653 16.8617 14.752 16.8123L14.7453 16.8097C13.9825 16.4766 13.2763 16.0268 12.652 15.4763C12.484 15.3297 12.328 15.1697 12.168 15.015C11.6434 14.5126 11.1863 13.9443 10.808 13.3243L10.7293 13.1977C10.6728 13.1125 10.6271 13.0207 10.5933 12.9243C10.5427 12.7283 10.6747 12.571 10.6747 12.571C10.6747 12.571 10.9987 12.2163 11.1493 12.0243C11.2748 11.8648 11.3918 11.6988 11.5 11.527C11.6573 11.2737 11.7067 11.0137 11.624 10.8123C11.2507 9.90032 10.864 8.99232 10.4667 8.09099C10.388 7.91232 10.1547 7.78432 9.94265 7.75899C9.87065 7.75099 9.79865 7.74299 9.72665 7.73766C9.54759 7.72876 9.36817 7.73054 9.18932 7.74299V7.74433Z"/>
</svg>
